<svg width="1024" height="1024" viewBox="0 0 1024 1024" fill="none" xmlns="http://www.w3.org/2000/svg">
<rect width="1024" height="1024" rx="164" fill="url(#paint0_linear_242_20)"/>
<path d="M444.489 580.492C482.05 618.052 542.942 618.052 580.501 580.492C618.061 542.931 618.061 482.035 580.501 444.476M444.489 580.492C406.93 542.931 406.93 482.035 444.489 444.476C482.05 406.916 542.942 406.916 580.501 444.476M444.489 580.492C444.489 580.492 444.784 670.299 399.152 716.476C353.95 761.631 309.587 808.309 263.139 761.814C219.003 717.63 262.663 671.748 308.477 625.797C353.406 580.732 444.489 580.492 444.489 580.492ZM580.501 444.476C580.501 444.476 580.206 354.639 625.838 308.462C671.041 263.305 715.404 216.629 761.853 263.124C805.988 307.306 762.328 353.189 716.516 399.139C671.586 444.205 580.501 444.476 580.501 444.476ZM267.913 665.474C258.955 651.201 251.18 636.047 244.802 620.226C231.379 586.942 224 550.59 224 512.507C224 376.696 318.051 262.69 444.506 232.078C466.312 226.794 489.086 224 512.502 224M759.821 363.93C785.968 407.357 801 458.164 801 512.494C801 634.517 725.079 738.927 617.968 781.078C585.294 793.924 549.699 801 512.499 801" stroke="white" stroke-width="53" stroke-linecap="round" stroke-linejoin="round"/>
<defs>
<linearGradient id="paint0_linear_242_20" x1="512" y1="0" x2="512" y2="1024" gradientUnits="userSpaceOnUse">
<stop stop-color="#595CFF"/>
<stop offset="1" stop-color="#9FCCFA"/>
</linearGradient>
</defs>
</svg>
